# xmcd
#
# Track frame offsets:
#	150
#	14506
#	31898
#	45388
#	61102
#	74823
#	90978
#	104527
#	124012
#	135654
#	147023
#	160305
#	175857
#	191161
#
# Disc length: 2638 seconds
# Revision: 1
# Processed by: cddbd v1.5.2PL0 Copyright (c) Steve Scherf et al.
# Submitted via: dBpowerAMP V12.0
#
DISCID=bf0a4c0e
DTITLE=Various Artist - Cowboys and Girls
DYEAR=2014
DGENRE=Country
TTITLE0=Randy Houston - Day Of The Cowboy
TTITLE1=Randy Houston - Cowboys And Girls
TTITLE2=Hannah Houston - Guardian Angel
TTITLE3=Randy Houston - Lucky
TTITLE4=Hannah Houston - Rides Like A Girl
TTITLE5=Randy Houston - Loving Today (In the Land of Tomorrow)
TTITLE6=Randy Houston - Cowboy Magazine
TTITLE7=Randy Houston - Men In Blue
TTITLE8=Hannah Houston - Hole In Daddy's Rope
TTITLE9=Randy Houston - I'm Already A Cowboy
TTITLE10=Randy Houston - Got In It For The Romance
TTITLE11=Randy Houston - Cattle Rest Easy
TTITLE12=Hannah Houston - Thanks For Today
TTITLE13=Randy Houston - Day Of The Cowboy-Reprise
EXTD=
EXTT0=
EXTT1=
EXTT2=
EXTT3=
EXTT4=
EXTT5=
EXTT6=
EXTT7=
EXTT8=
EXTT9=
EXTT10=
EXTT11=
EXTT12=
EXTT13=
PLAYORDER=
